<svg id="Layer_1" xmlns="http://www.w3.org/2000/svg" 	  viewBox="0 0 612 792"  >
<path fill="#BFF698" d="M8.757,209.952l18.359,15.3c-0.611,31.824,15.912,55.08,22.645,63.648
	c15.3,20.808,33.66,31.212,50.184,39.168c1.836,1.224,4.284,2.448,6.732,3.672c35.496,17.136,66.708,19.584,84.456,20.196
	c1.224,1.224,2.447,2.448,3.672,3.672c-1.836,0-3.061,0-4.896,0c-17.136-0.612-49.572-3.06-85.68-20.196
	c-1.836-1.224-4.284-2.448-6.732-3.672c0.612,0.612,0.612,4.284,0.612,4.896c0,1.836,0.612,3.06,0.612,4.896
	c0.611,3.06,1.224,6.12,1.836,9.18c1.836,9.792,4.284,18.972,7.344,28.152c3.06,9.18,6.732,18.359,10.404,26.928
	c4.283,8.568,8.567,17.136,13.464,25.092c4.896,8.568,10.403,16.524,15.912,23.868c5.508,7.956,11.628,15.3,18.359,22.032
	c3.672,3.672,6.732,7.344,10.404,10.403c3.672,3.061,7.344,6.732,12.24,6.732c8.567,0,15.3-8.568,15.3-19.584
	c0-9.18-4.896-17.136-11.628-18.972c4.284-4.284,7.344-10.404,7.344-17.137c0-6.731-3.06-13.464-8.567-17.747
	c4.896-4.284,8.567-10.404,8.567-17.748c0-7.344-3.672-14.076-9.18-18.36c7.344-3.06,12.24-10.404,13.464-18.36
	c42.228,46.512,70.992,105.875,80.784,170.136c0,1.224,0.611,3.06,1.224,4.283c2.448,7.345,9.18,12.24,16.524,12.24
	c9.792,0,17.748-7.956,17.748-17.748c0-1.224,0-1.836,0-3.06v-3.061l2.449-0.611c11.016-3.673,18.359-14.688,18.359-27.54
	c0-1.836,0-3.672-0.611-6.12l-0.613-1.836l1.836-1.225c10.404-6.12,17.137-17.136,17.137-29.376c0-3.672-0.611-6.731-1.836-10.403
	l-0.612-2.448l1.837-1.225c9.18-6.119,14.688-16.523,14.688-28.151c0-5.508-1.225-10.404-3.672-15.3l-0.612-1.836l1.836-1.836
	c7.956-6.732,12.853-16.524,12.853-26.929c0-10.404-4.285-19.584-12.24-26.316l-2.448-1.836l1.836-2.448
	c4.896-6.12,7.345-13.464,7.345-21.42c0-7.344-2.449-14.076-6.732-20.196c3.06-1.836,5.508-3.06,7.955-4.896
	c12.24-7.956,16.524-11.628,37.945-25.704c25.092-15.912,47.735-29.376,56.916-34.272c17.135-9.792,55.079-27.54,124.235-36.108
	c2.448-0.612,2.448-3.672,0.612-4.284c-6.732-3.06-15.301-7.956-22.032-16.524c-6.731-9.18-9.181-18.36-9.792-24.48
	c-0.612-1.836-2.448-3.06-4.284-1.836c-13.464,10.404-58.14,42.228-99.756,54.468c-24.479,7.344-48.96,9.18-48.96,9.18
	c-3.061,0-11.016,0.612-21.42,0.612c-35.496,0-69.768-6.732-100.368-20.196c-21.42-9.18-41.616-21.42-59.976-36.108
	c-1.837-1.224-3.673-3.06-5.509-4.284c-22.644-18.36-51.407-28.764-82.62-28.764c-3.672,0-6.731,0.612-9.791,0.612
	c-9.793,1.224-19.584,2.448-28.765,5.508c-37.332,11.016-55.691,33.048-55.691,33.048c-9.181,11.016-14.688,23.256-17.748,33.048
	c-6.732,1.224-15.301,3.672-21.42,4.896C8.145,206.28,6.92,209.952,8.757,209.952z M69.345,208.728
	c0-5.508,4.896-10.404,10.403-10.404s10.404,4.284,10.404,10.404c0,5.508-4.284,10.404-10.404,10.404S69.345,214.236,69.345,208.728
	z"/>
</svg>
