<svg version="1.1" id="Layer_1" xmlns="http://www.w3.org/2000/svg" viewBox="0 0 612 792">
<path fill="#BFF698" d="M18.079,365.4l18.36,15.3c-0.612,32.436,15.912,55.081,22.644,63.647
	c17.748,23.868,39.168,34.272,56.916,42.84c36.108,17.138,68.544,19.584,85.681,20.196c44.676,2.448,78.947-7.956,96.695-13.464
	c41.616-13.464,72.829-33.66,89.353-44.063c12.24-7.955,16.525-11.629,37.945-25.703c25.092-15.912,47.734-29.376,56.916-34.272
	c15.91-8.568,50.184-25.092,111.996-34.271c5.508-0.612,22.787-3.109,2.447-11.017c-3.672-2.448-7.957-6.12-11.629-11.016
	c-4.896-6.731-7.346-13.464-8.566-18.972c1.868-16.772-6.121-6.121-9.793-3.672c-17.748,12.852-57.527,39.779-94.859,50.795
	c-24.48,7.344-48.961,9.181-48.961,9.181c-1.223,0.612-2.447,0.612-4.896,0.612c7.957-6.732,12.854-17.137,12.854-28.152
	c0-8.568-3.672-17.137-8.568-23.256c8.568-7.344,13.465-17.136,13.465-28.764c0-12.24-5.508-22.644-14.076-29.376
	c2.447-4.896,3.672-10.404,3.672-16.524c0-12.852-6.73-23.868-16.523-30.6c1.225-3.672,1.836-7.344,1.836-11.628
	c0-14.076-7.346-25.704-18.359-32.436c0.611-1.836,0.611-4.284,0.611-6.732c0-14.688-8.566-26.928-20.195-30.6
	c0.611-0.612,0.611-1.836,0.611-3.06c0-11.628-9.182-20.808-20.809-20.808c-9.18,0-16.523,5.508-19.584,13.464
	c-1.225,1.836-1.836,3.672-1.836,5.508c-8.566,58.14-33.049,111.384-68.545,153c0.612-1.224,0.612-2.448,0.612-3.672
	c0-8.568-5.508-15.912-13.464-18.36c3.672-4.284,6.12-9.792,6.12-15.912c0-9.792-5.508-17.748-13.464-21.42
	c5.508-4.284,9.18-11.016,9.18-18.36c0-7.344-3.061-13.464-8.568-17.748c4.896-4.284,8.568-10.404,8.568-17.748
	c0-6.732-3.061-12.852-7.344-17.136c6.731-1.836,11.628-9.792,11.628-18.972c0-10.404-6.732-19.584-15.3-19.584
	c-4.896,0-8.568,3.06-11.629,6.12c-1.836,1.224-3.672,3.06-5.508,4.896c-4.283,4.896-8.567,9.18-12.852,14.076
	s-8.568,9.792-12.24,14.688c-3.672,5.508-7.344,10.404-11.016,15.912s-6.732,11.016-9.792,16.524
	c-3.061,5.508-6.12,11.628-8.568,17.136c-3.06,6.12-5.508,11.628-7.344,17.748c-1.836,6.12-3.672,12.24-5.508,18.36
	s-3.061,12.852-4.284,18.972c-0.612,3.672-1.225,6.732-1.836,9.792c0,1.224-1.225,9.792-1.225,9.792c1.225,0,1.836,0,3.061,0
	c31.824,0,61.812,10.404,86.903,29.988l1.225,1.224c-1.225,1.224-3.061,3.061-4.284,4.283l-0.612-0.611
	c-22.644-18.36-51.407-28.764-82.62-28.764c-3.672,0-6.731,0.612-9.791,0.612c-9.793,1.224-19.584,2.448-28.765,5.508
	c-37.332,11.016-55.691,33.048-55.691,33.048c-9.181,11.016-14.688,23.256-17.748,33.048c-6.732,1.224-15.301,3.672-21.42,4.896
	C16.855,360.504,15.631,364.176,18.079,365.4z M79.012,361.684c0-5.508,4.896-10.404,10.403-10.404s10.404,4.285,10.404,10.404
	c0,5.508-4.284,10.404-10.404,10.404S78.399,367.191,79.012,361.684z"/>
</svg>
